<mxfile host="app.diagrams.net" agent="Mozilla/5.0 (X11; Linux x86_64; rv:136.0) Gecko/20100101 Firefox/136.0" version="26.1.3">
  <diagram name="Page-1" id="6llcf1VO2GF8xaWJh-RL">
    <mxGraphModel dx="3382" dy="2260" grid="1" gridSize="10" guides="1" tooltips="1" connect="1" arrows="1" fold="1" page="1" pageScale="1" pageWidth="850" pageHeight="1100" math="0" shadow="0">
      <root>
        <mxCell id="0" />
        <mxCell id="1" parent="0" />
        <mxCell id="7397BdflzSJR0_GllKvD-17" style="edgeStyle=orthogonalEdgeStyle;rounded=0;orthogonalLoop=1;jettySize=auto;html=1;exitX=0.75;exitY=1;exitDx=0;exitDy=0;exitPerimeter=0;" parent="1" source="7397BdflzSJR0_GllKvD-3" target="7397BdflzSJR0_GllKvD-7" edge="1">
          <mxGeometry relative="1" as="geometry" />
        </mxCell>
        <mxCell id="7397BdflzSJR0_GllKvD-20" style="edgeStyle=orthogonalEdgeStyle;rounded=0;orthogonalLoop=1;jettySize=auto;html=1;" parent="1" source="7397BdflzSJR0_GllKvD-3" edge="1">
          <mxGeometry relative="1" as="geometry">
            <mxPoint x="160" y="682" as="targetPoint" />
            <mxPoint x="139.5" y="400" as="sourcePoint" />
          </mxGeometry>
        </mxCell>
        <mxCell id="7397BdflzSJR0_GllKvD-3" value="API Server " style="sketch=0;points=[[0,0,0],[0.25,0,0],[0.5,0,0],[0.75,0,0],[1,0,0],[0,1,0],[0.25,1,0],[0.5,1,0],[0.75,1,0],[1,1,0],[0,0.25,0],[0,0.5,0],[0,0.75,0],[1,0.25,0],[1,0.5,0],[1,0.75,0]];outlineConnect=0;fontColor=#232F3E;fillColor=#ED7100;strokeColor=#ffffff;dashed=0;verticalLabelPosition=bottom;verticalAlign=top;align=center;html=1;fontSize=12;fontStyle=0;aspect=fixed;shape=mxgraph.aws4.resourceIcon;resIcon=mxgraph.aws4.ec2;" parent="1" vertex="1">
          <mxGeometry x="120" y="280" width="78" height="78" as="geometry" />
        </mxCell>
        <mxCell id="7397BdflzSJR0_GllKvD-4" value="Application Server" style="sketch=0;points=[[0,0,0],[0.25,0,0],[0.5,0,0],[0.75,0,0],[1,0,0],[0,1,0],[0.25,1,0],[0.5,1,0],[0.75,1,0],[1,1,0],[0,0.25,0],[0,0.5,0],[0,0.75,0],[1,0.25,0],[1,0.5,0],[1,0.75,0]];outlineConnect=0;fontColor=#232F3E;fillColor=#ED7100;strokeColor=#ffffff;dashed=0;verticalLabelPosition=bottom;verticalAlign=top;align=center;html=1;fontSize=12;fontStyle=0;aspect=fixed;shape=mxgraph.aws4.resourceIcon;resIcon=mxgraph.aws4.ec2;" parent="1" vertex="1">
          <mxGeometry x="320" y="280" width="78" height="78" as="geometry" />
        </mxCell>
        <mxCell id="7397BdflzSJR0_GllKvD-5" value="Log DB Server" style="sketch=0;points=[[0,0,0],[0.25,0,0],[0.5,0,0],[0.75,0,0],[1,0,0],[0,1,0],[0.25,1,0],[0.5,1,0],[0.75,1,0],[1,1,0],[0,0.25,0],[0,0.5,0],[0,0.75,0],[1,0.25,0],[1,0.5,0],[1,0.75,0]];outlineConnect=0;fontColor=#232F3E;fillColor=#ED7100;strokeColor=#ffffff;dashed=0;verticalLabelPosition=bottom;verticalAlign=top;align=center;html=1;fontSize=12;fontStyle=0;aspect=fixed;shape=mxgraph.aws4.resourceIcon;resIcon=mxgraph.aws4.ec2;" parent="1" vertex="1">
          <mxGeometry x="120" y="640" width="78" height="78" as="geometry" />
        </mxCell>
        <mxCell id="7397BdflzSJR0_GllKvD-12" style="edgeStyle=orthogonalEdgeStyle;rounded=0;orthogonalLoop=1;jettySize=auto;html=1;entryX=1;entryY=0.5;entryDx=0;entryDy=0;entryPerimeter=0;" parent="1" source="7397BdflzSJR0_GllKvD-67" target="7397BdflzSJR0_GllKvD-7" edge="1">
          <mxGeometry relative="1" as="geometry">
            <mxPoint x="569" y="570" as="targetPoint" />
            <Array as="points" />
          </mxGeometry>
        </mxCell>
        <mxCell id="7397BdflzSJR0_GllKvD-6" value="Slave DB Server" style="sketch=0;points=[[0,0,0],[0.25,0,0],[0.5,0,0],[0.75,0,0],[1,0,0],[0,1,0],[0.25,1,0],[0.5,1,0],[0.75,1,0],[1,1,0],[0,0.25,0],[0,0.5,0],[0,0.75,0],[1,0.25,0],[1,0.5,0],[1,0.75,0]];outlineConnect=0;fontColor=#232F3E;fillColor=#ED7100;strokeColor=#ffffff;dashed=0;verticalLabelPosition=bottom;verticalAlign=top;align=center;html=1;fontSize=12;fontStyle=0;aspect=fixed;shape=mxgraph.aws4.resourceIcon;resIcon=mxgraph.aws4.ec2;" parent="1" vertex="1">
          <mxGeometry x="530" y="640" width="78" height="78" as="geometry" />
        </mxCell>
        <mxCell id="7397BdflzSJR0_GllKvD-26" style="edgeStyle=orthogonalEdgeStyle;rounded=0;orthogonalLoop=1;jettySize=auto;html=1;exitX=0.5;exitY=1;exitDx=0;exitDy=0;exitPerimeter=0;" parent="1" source="7397BdflzSJR0_GllKvD-7" edge="1">
          <mxGeometry relative="1" as="geometry">
            <mxPoint x="359" y="790" as="targetPoint" />
          </mxGeometry>
        </mxCell>
        <mxCell id="7397BdflzSJR0_GllKvD-7" value="Main DB Server" style="sketch=0;points=[[0,0,0],[0.25,0,0],[0.5,0,0],[0.75,0,0],[1,0,0],[0,1,0],[0.25,1,0],[0.5,1,0],[0.75,1,0],[1,1,0],[0,0.25,0],[0,0.5,0],[0,0.75,0],[1,0.25,0],[1,0.5,0],[1,0.75,0]];outlineConnect=0;fontColor=#232F3E;fillColor=#ED7100;strokeColor=#ffffff;dashed=0;verticalLabelPosition=bottom;verticalAlign=top;align=center;html=1;fontSize=12;fontStyle=0;aspect=fixed;shape=mxgraph.aws4.resourceIcon;resIcon=mxgraph.aws4.ec2;" parent="1" vertex="1">
          <mxGeometry x="320" y="530" width="78" height="78" as="geometry" />
        </mxCell>
        <mxCell id="7397BdflzSJR0_GllKvD-8" value="Account Server" style="sketch=0;points=[[0,0,0],[0.25,0,0],[0.5,0,0],[0.75,0,0],[1,0,0],[0,1,0],[0.25,1,0],[0.5,1,0],[0.75,1,0],[1,1,0],[0,0.25,0],[0,0.5,0],[0,0.75,0],[1,0.25,0],[1,0.5,0],[1,0.75,0]];outlineConnect=0;fontColor=#232F3E;fillColor=#ED7100;strokeColor=#ffffff;dashed=0;verticalLabelPosition=bottom;verticalAlign=top;align=center;html=1;fontSize=12;fontStyle=0;aspect=fixed;shape=mxgraph.aws4.resourceIcon;resIcon=mxgraph.aws4.ec2;" parent="1" vertex="1">
          <mxGeometry x="520" y="280" width="78" height="78" as="geometry" />
        </mxCell>
        <mxCell id="7397BdflzSJR0_GllKvD-22" style="edgeStyle=orthogonalEdgeStyle;rounded=0;orthogonalLoop=1;jettySize=auto;html=1;exitX=0.5;exitY=1;exitDx=0;exitDy=0;exitPerimeter=0;" parent="1" source="7397BdflzSJR0_GllKvD-95" target="7397BdflzSJR0_GllKvD-8" edge="1">
          <mxGeometry relative="1" as="geometry" />
        </mxCell>
        <mxCell id="7397BdflzSJR0_GllKvD-10" value="&lt;div&gt;Splunk Server&lt;/div&gt;&lt;div&gt;&lt;br&gt;&lt;/div&gt;" style="sketch=0;points=[[0,0,0],[0.25,0,0],[0.5,0,0],[0.75,0,0],[1,0,0],[0,1,0],[0.25,1,0],[0.5,1,0],[0.75,1,0],[1,1,0],[0,0.25,0],[0,0.5,0],[0,0.75,0],[1,0.25,0],[1,0.5,0],[1,0.75,0]];outlineConnect=0;fontColor=#232F3E;fillColor=#ED7100;strokeColor=#ffffff;dashed=0;verticalLabelPosition=bottom;verticalAlign=top;align=center;html=1;fontSize=12;fontStyle=0;aspect=fixed;shape=mxgraph.aws4.resourceIcon;resIcon=mxgraph.aws4.auto_scaling2;" parent="1" vertex="1">
          <mxGeometry x="750" y="111" width="78" height="78" as="geometry" />
        </mxCell>
        <mxCell id="7397BdflzSJR0_GllKvD-11" style="edgeStyle=orthogonalEdgeStyle;rounded=0;orthogonalLoop=1;jettySize=auto;html=1;exitX=0.5;exitY=1;exitDx=0;exitDy=0;exitPerimeter=0;entryX=0.5;entryY=0;entryDx=0;entryDy=0;entryPerimeter=0;" parent="1" source="7397BdflzSJR0_GllKvD-4" target="7397BdflzSJR0_GllKvD-7" edge="1">
          <mxGeometry relative="1" as="geometry" />
        </mxCell>
        <mxCell id="7397BdflzSJR0_GllKvD-14" style="edgeStyle=orthogonalEdgeStyle;rounded=0;orthogonalLoop=1;jettySize=auto;html=1;entryX=0;entryY=0.5;entryDx=0;entryDy=0;entryPerimeter=0;" parent="1" source="7397BdflzSJR0_GllKvD-88" target="7397BdflzSJR0_GllKvD-4" edge="1">
          <mxGeometry relative="1" as="geometry" />
        </mxCell>
        <mxCell id="7397BdflzSJR0_GllKvD-18" style="edgeStyle=orthogonalEdgeStyle;rounded=0;orthogonalLoop=1;jettySize=auto;html=1;exitX=0.5;exitY=1;exitDx=0;exitDy=0;exitPerimeter=0;entryX=0.5;entryY=0;entryDx=0;entryDy=0;entryPerimeter=0;" parent="1" source="7397BdflzSJR0_GllKvD-8" target="7397BdflzSJR0_GllKvD-7" edge="1">
          <mxGeometry relative="1" as="geometry" />
        </mxCell>
        <mxCell id="7397BdflzSJR0_GllKvD-19" value="" style="edgeStyle=orthogonalEdgeStyle;rounded=0;orthogonalLoop=1;jettySize=auto;html=1;exitX=0.75;exitY=1;exitDx=0;exitDy=0;exitPerimeter=0;entryX=0.5;entryY=0;entryDx=0;entryDy=0;entryPerimeter=0;" parent="1" source="7397BdflzSJR0_GllKvD-60" target="7397BdflzSJR0_GllKvD-5" edge="1">
          <mxGeometry relative="1" as="geometry" />
        </mxCell>
        <mxCell id="7397BdflzSJR0_GllKvD-21" style="edgeStyle=orthogonalEdgeStyle;rounded=0;orthogonalLoop=1;jettySize=auto;html=1;entryX=0.5;entryY=0;entryDx=0;entryDy=0;entryPerimeter=0;" parent="1" source="7397BdflzSJR0_GllKvD-97" target="7397BdflzSJR0_GllKvD-4" edge="1">
          <mxGeometry relative="1" as="geometry" />
        </mxCell>
        <mxCell id="7397BdflzSJR0_GllKvD-23" style="edgeStyle=orthogonalEdgeStyle;rounded=0;orthogonalLoop=1;jettySize=auto;html=1;exitX=0.5;exitY=1;exitDx=0;exitDy=0;exitPerimeter=0;entryX=0.5;entryY=0;entryDx=0;entryDy=0;entryPerimeter=0;" parent="1" source="7397BdflzSJR0_GllKvD-99" target="7397BdflzSJR0_GllKvD-3" edge="1">
          <mxGeometry relative="1" as="geometry">
            <Array as="points">
              <mxPoint x="159" y="220" />
            </Array>
          </mxGeometry>
        </mxCell>
        <mxCell id="7397BdflzSJR0_GllKvD-24" value="&lt;div&gt;S3 Storage&lt;/div&gt;&lt;div&gt;&lt;br&gt;&lt;/div&gt;" style="sketch=0;points=[[0,0,0],[0.25,0,0],[0.5,0,0],[0.75,0,0],[1,0,0],[0,1,0],[0.25,1,0],[0.5,1,0],[0.75,1,0],[1,1,0],[0,0.25,0],[0,0.5,0],[0,0.75,0],[1,0.25,0],[1,0.5,0],[1,0.75,0]];outlineConnect=0;fontColor=#232F3E;fillColor=#7AA116;strokeColor=#ffffff;dashed=0;verticalLabelPosition=bottom;verticalAlign=top;align=center;html=1;fontSize=12;fontStyle=0;aspect=fixed;shape=mxgraph.aws4.resourceIcon;resIcon=mxgraph.aws4.s3;" parent="1" vertex="1">
          <mxGeometry x="320" y="800" width="78" height="78" as="geometry" />
        </mxCell>
        <mxCell id="7397BdflzSJR0_GllKvD-25" style="edgeStyle=orthogonalEdgeStyle;rounded=0;orthogonalLoop=1;jettySize=auto;html=1;exitX=0.5;exitY=1;exitDx=0;exitDy=0;exitPerimeter=0;entryX=0.5;entryY=0;entryDx=0;entryDy=0;entryPerimeter=0;" parent="1" source="7397BdflzSJR0_GllKvD-6" target="7397BdflzSJR0_GllKvD-24" edge="1">
          <mxGeometry relative="1" as="geometry" />
        </mxCell>
        <mxCell id="7397BdflzSJR0_GllKvD-27" style="edgeStyle=orthogonalEdgeStyle;rounded=0;orthogonalLoop=1;jettySize=auto;html=1;exitX=0.5;exitY=1;exitDx=0;exitDy=0;exitPerimeter=0;entryX=0.5;entryY=0;entryDx=0;entryDy=0;entryPerimeter=0;" parent="1" source="7397BdflzSJR0_GllKvD-5" target="7397BdflzSJR0_GllKvD-24" edge="1">
          <mxGeometry relative="1" as="geometry" />
        </mxCell>
        <mxCell id="7397BdflzSJR0_GllKvD-35" style="edgeStyle=orthogonalEdgeStyle;rounded=0;orthogonalLoop=1;jettySize=auto;html=1;exitX=0.89;exitY=1;exitDx=0;exitDy=0;exitPerimeter=0;" parent="1" source="7397BdflzSJR0_GllKvD-28" target="7397BdflzSJR0_GllKvD-34" edge="1">
          <mxGeometry relative="1" as="geometry" />
        </mxCell>
        <mxCell id="7397BdflzSJR0_GllKvD-28" value="EFS Storage" style="outlineConnect=0;dashed=0;verticalLabelPosition=bottom;verticalAlign=top;align=center;html=1;shape=mxgraph.aws3.efs_share;fillColor=#E05243;gradientColor=none;" parent="1" vertex="1">
          <mxGeometry x="890" y="330" width="69" height="63" as="geometry" />
        </mxCell>
        <mxCell id="7397BdflzSJR0_GllKvD-30" style="edgeStyle=orthogonalEdgeStyle;rounded=0;orthogonalLoop=1;jettySize=auto;html=1;exitX=1;exitY=1;exitDx=0;exitDy=0;exitPerimeter=0;entryX=0.5;entryY=1;entryDx=0;entryDy=0;entryPerimeter=0;" parent="1" source="7397BdflzSJR0_GllKvD-3" target="7397BdflzSJR0_GllKvD-28" edge="1">
          <mxGeometry relative="1" as="geometry">
            <Array as="points">
              <mxPoint x="198" y="470" />
              <mxPoint x="745" y="470" />
            </Array>
          </mxGeometry>
        </mxCell>
        <mxCell id="7397BdflzSJR0_GllKvD-32" style="edgeStyle=orthogonalEdgeStyle;rounded=0;orthogonalLoop=1;jettySize=auto;html=1;exitX=1;exitY=1;exitDx=0;exitDy=0;exitPerimeter=0;entryX=0.5;entryY=1;entryDx=0;entryDy=0;entryPerimeter=0;" parent="1" source="7397BdflzSJR0_GllKvD-4" target="7397BdflzSJR0_GllKvD-28" edge="1">
          <mxGeometry relative="1" as="geometry">
            <Array as="points">
              <mxPoint x="398" y="470" />
              <mxPoint x="745" y="470" />
            </Array>
          </mxGeometry>
        </mxCell>
        <mxCell id="7397BdflzSJR0_GllKvD-34" value="Replicated EFS" style="outlineConnect=0;dashed=0;verticalLabelPosition=bottom;verticalAlign=top;align=center;html=1;shape=mxgraph.aws3.efs_share;fillColor=#E05243;gradientColor=none;" parent="1" vertex="1">
          <mxGeometry x="921" y="519" width="69" height="63" as="geometry" />
        </mxCell>
        <mxCell id="7397BdflzSJR0_GllKvD-36" value="&lt;div&gt;Load Balancer&lt;/div&gt;" style="points=[];aspect=fixed;html=1;align=center;shadow=0;dashed=0;fillColor=#FF6A00;strokeColor=none;shape=mxgraph.alibaba_cloud.alb_application_load_balancer_02;" parent="1" vertex="1">
          <mxGeometry x="120" y="90" width="60" height="60" as="geometry" />
        </mxCell>
        <mxCell id="7397BdflzSJR0_GllKvD-37" value="&lt;div&gt;Load Balancer&lt;/div&gt;&lt;div&gt;&lt;br&gt;&lt;/div&gt;" style="points=[];aspect=fixed;html=1;align=center;shadow=0;dashed=0;fillColor=#FF6A00;strokeColor=none;shape=mxgraph.alibaba_cloud.alb_application_load_balancer_02;" parent="1" vertex="1">
          <mxGeometry x="250" y="90" width="60" height="60" as="geometry" />
        </mxCell>
        <mxCell id="7397BdflzSJR0_GllKvD-39" style="edgeStyle=orthogonalEdgeStyle;rounded=0;orthogonalLoop=1;jettySize=auto;html=1;exitX=0.25;exitY=0;exitDx=0;exitDy=0;exitPerimeter=0;entryX=0.55;entryY=0.983;entryDx=0;entryDy=0;entryPerimeter=0;" parent="1" source="7397BdflzSJR0_GllKvD-103" target="7397BdflzSJR0_GllKvD-36" edge="1">
          <mxGeometry relative="1" as="geometry" />
        </mxCell>
        <mxCell id="7397BdflzSJR0_GllKvD-40" style="edgeStyle=orthogonalEdgeStyle;rounded=0;orthogonalLoop=1;jettySize=auto;html=1;exitX=0.25;exitY=0;exitDx=0;exitDy=0;exitPerimeter=0;entryX=0.4;entryY=1;entryDx=0;entryDy=0;entryPerimeter=0;" parent="1" source="7397BdflzSJR0_GllKvD-101" target="7397BdflzSJR0_GllKvD-37" edge="1">
          <mxGeometry relative="1" as="geometry">
            <Array as="points" />
          </mxGeometry>
        </mxCell>
        <mxCell id="7397BdflzSJR0_GllKvD-41" value="&lt;div&gt;Web Application Firewall&lt;/div&gt;&lt;div&gt;&lt;br&gt;&lt;/div&gt;" style="sketch=0;points=[[0,0,0],[0.25,0,0],[0.5,0,0],[0.75,0,0],[1,0,0],[0,1,0],[0.25,1,0],[0.5,1,0],[0.75,1,0],[1,1,0],[0,0.25,0],[0,0.5,0],[0,0.75,0],[1,0.25,0],[1,0.5,0],[1,0.75,0]];outlineConnect=0;fontColor=#232F3E;fillColor=#DD344C;strokeColor=#ffffff;dashed=0;verticalLabelPosition=bottom;verticalAlign=top;align=center;html=1;fontSize=12;fontStyle=0;aspect=fixed;shape=mxgraph.aws4.resourceIcon;resIcon=mxgraph.aws4.waf;" parent="1" vertex="1">
          <mxGeometry x="404.8" y="-20" width="48" height="48" as="geometry" />
        </mxCell>
        <mxCell id="7397BdflzSJR0_GllKvD-45" value="&lt;div&gt;Internet &lt;br&gt;&lt;/div&gt;" style="ellipse;shape=cloud;whiteSpace=wrap;html=1;fillColor=#cce5ff;strokeColor=#36393d;" parent="1" vertex="1">
          <mxGeometry x="360" y="-180" width="120" height="80" as="geometry" />
        </mxCell>
        <mxCell id="7397BdflzSJR0_GllKvD-46" style="edgeStyle=orthogonalEdgeStyle;rounded=0;orthogonalLoop=1;jettySize=auto;html=1;entryX=0;entryY=0.5;entryDx=0;entryDy=0;entryPerimeter=0;" parent="1" source="7397BdflzSJR0_GllKvD-37" target="7397BdflzSJR0_GllKvD-41" edge="1">
          <mxGeometry relative="1" as="geometry">
            <Array as="points">
              <mxPoint x="280" y="24" />
            </Array>
          </mxGeometry>
        </mxCell>
        <mxCell id="7397BdflzSJR0_GllKvD-48" style="edgeStyle=orthogonalEdgeStyle;rounded=0;orthogonalLoop=1;jettySize=auto;html=1;entryX=0;entryY=0.5;entryDx=0;entryDy=0;entryPerimeter=0;" parent="1" source="7397BdflzSJR0_GllKvD-36" target="7397BdflzSJR0_GllKvD-41" edge="1">
          <mxGeometry relative="1" as="geometry">
            <Array as="points">
              <mxPoint x="150" y="10" />
              <mxPoint x="395" y="10" />
            </Array>
          </mxGeometry>
        </mxCell>
        <mxCell id="7397BdflzSJR0_GllKvD-51" value="firewall" style="ellipse;whiteSpace=wrap;html=1;rotation=0;" parent="1" vertex="1">
          <mxGeometry x="442.8" y="550" width="10" as="geometry" />
        </mxCell>
        <mxCell id="7397BdflzSJR0_GllKvD-72" value="" style="edgeStyle=orthogonalEdgeStyle;rounded=0;orthogonalLoop=1;jettySize=auto;html=1;entryX=1;entryY=0.5;entryDx=0;entryDy=0;entryPerimeter=0;" parent="1" source="7397BdflzSJR0_GllKvD-6" target="7397BdflzSJR0_GllKvD-67" edge="1">
          <mxGeometry relative="1" as="geometry">
            <mxPoint x="398" y="569" as="targetPoint" />
            <mxPoint x="569" y="640" as="sourcePoint" />
            <Array as="points">
              <mxPoint x="569" y="570" />
              <mxPoint x="464" y="570" />
              <mxPoint x="464" y="569" />
            </Array>
          </mxGeometry>
        </mxCell>
        <mxCell id="7397BdflzSJR0_GllKvD-67" value="" style="image;sketch=0;aspect=fixed;html=1;points=[];align=center;fontSize=12;image=img/lib/mscae/Network_Security_Groups_Classic.svg;" parent="1" vertex="1">
          <mxGeometry x="438" y="559" width="14.8" height="20" as="geometry" />
        </mxCell>
        <mxCell id="7397BdflzSJR0_GllKvD-74" value="" style="edgeStyle=orthogonalEdgeStyle;rounded=0;orthogonalLoop=1;jettySize=auto;html=1;exitX=0.75;exitY=1;exitDx=0;exitDy=0;exitPerimeter=0;entryX=0.5;entryY=0;entryDx=0;entryDy=0;entryPerimeter=0;" parent="1" source="7397BdflzSJR0_GllKvD-4" target="7397BdflzSJR0_GllKvD-60" edge="1">
          <mxGeometry relative="1" as="geometry">
            <mxPoint x="379" y="358" as="sourcePoint" />
            <mxPoint x="159" y="640" as="targetPoint" />
            <Array as="points">
              <mxPoint x="379" y="460" />
              <mxPoint x="159" y="460" />
            </Array>
          </mxGeometry>
        </mxCell>
        <mxCell id="7397BdflzSJR0_GllKvD-60" value="" style="image;sketch=0;aspect=fixed;html=1;points=[];align=center;fontSize=12;image=img/lib/mscae/Network_Security_Groups_Classic.svg;" parent="1" vertex="1">
          <mxGeometry x="151.6" y="540" width="14.8" height="20" as="geometry" />
        </mxCell>
        <mxCell id="7397BdflzSJR0_GllKvD-87" value="" style="image;sketch=0;aspect=fixed;html=1;points=[];align=center;fontSize=12;image=img/lib/mscae/Network_Security_Groups_Classic.svg;" parent="1" vertex="1">
          <mxGeometry x="351.6" y="490" width="14.8" height="20" as="geometry" />
        </mxCell>
        <mxCell id="7397BdflzSJR0_GllKvD-89" value="" style="edgeStyle=orthogonalEdgeStyle;rounded=0;orthogonalLoop=1;jettySize=auto;html=1;entryX=0;entryY=0.5;entryDx=0;entryDy=0;entryPerimeter=0;" parent="1" source="7397BdflzSJR0_GllKvD-5" target="7397BdflzSJR0_GllKvD-88" edge="1">
          <mxGeometry relative="1" as="geometry">
            <mxPoint x="198" y="679" as="sourcePoint" />
            <mxPoint x="320" y="319" as="targetPoint" />
          </mxGeometry>
        </mxCell>
        <mxCell id="7397BdflzSJR0_GllKvD-88" value="" style="image;sketch=0;aspect=fixed;html=1;points=[];align=center;fontSize=12;image=img/lib/mscae/Network_Security_Groups_Classic.svg;" parent="1" vertex="1">
          <mxGeometry x="250.00000000000003" y="380" width="14.8" height="20" as="geometry" />
        </mxCell>
        <mxCell id="7397BdflzSJR0_GllKvD-94" value="" style="edgeStyle=orthogonalEdgeStyle;rounded=0;orthogonalLoop=1;jettySize=auto;html=1;exitX=1;exitY=1;exitDx=0;exitDy=0;exitPerimeter=0;entryX=0.5;entryY=1;entryDx=0;entryDy=0;entryPerimeter=0;" parent="1" source="7397BdflzSJR0_GllKvD-8" target="7397BdflzSJR0_GllKvD-91" edge="1">
          <mxGeometry relative="1" as="geometry">
            <mxPoint x="598" y="358" as="sourcePoint" />
            <mxPoint x="745" y="351" as="targetPoint" />
            <Array as="points">
              <mxPoint x="598" y="470" />
              <mxPoint x="743" y="470" />
            </Array>
          </mxGeometry>
        </mxCell>
        <mxCell id="7397BdflzSJR0_GllKvD-91" value="" style="image;sketch=0;aspect=fixed;html=1;points=[];align=center;fontSize=12;image=img/lib/mscae/Network_Security_Groups_Classic.svg;" parent="1" vertex="1">
          <mxGeometry x="735.2" y="400" width="14.8" height="20" as="geometry" />
        </mxCell>
        <mxCell id="7397BdflzSJR0_GllKvD-96" value="" style="edgeStyle=orthogonalEdgeStyle;rounded=0;orthogonalLoop=1;jettySize=auto;html=1;exitX=0.5;exitY=1;exitDx=0;exitDy=0;exitPerimeter=0;" parent="1" source="7397BdflzSJR0_GllKvD-10" target="7397BdflzSJR0_GllKvD-95" edge="1">
          <mxGeometry relative="1" as="geometry">
            <mxPoint x="789" y="189" as="sourcePoint" />
            <mxPoint x="559" y="280" as="targetPoint" />
            <Array as="points">
              <mxPoint x="789" y="220" />
              <mxPoint x="559" y="220" />
            </Array>
          </mxGeometry>
        </mxCell>
        <mxCell id="7397BdflzSJR0_GllKvD-95" value="" style="image;sketch=0;aspect=fixed;html=1;points=[];align=center;fontSize=12;image=img/lib/mscae/Network_Security_Groups_Classic.svg;" parent="1" vertex="1">
          <mxGeometry x="551.6" y="240" width="14.8" height="20" as="geometry" />
        </mxCell>
        <mxCell id="7397BdflzSJR0_GllKvD-98" value="" style="edgeStyle=orthogonalEdgeStyle;rounded=0;orthogonalLoop=1;jettySize=auto;html=1;entryX=0.5;entryY=0;entryDx=0;entryDy=0;entryPerimeter=0;" parent="1" source="7397BdflzSJR0_GllKvD-10" target="7397BdflzSJR0_GllKvD-97" edge="1">
          <mxGeometry relative="1" as="geometry">
            <mxPoint x="750" y="150" as="sourcePoint" />
            <mxPoint x="359" y="280" as="targetPoint" />
          </mxGeometry>
        </mxCell>
        <mxCell id="7397BdflzSJR0_GllKvD-97" value="" style="image;sketch=0;aspect=fixed;html=1;points=[];align=center;fontSize=12;image=img/lib/mscae/Network_Security_Groups_Classic.svg;" parent="1" vertex="1">
          <mxGeometry x="351.6" y="230" width="14.8" height="20" as="geometry" />
        </mxCell>
        <mxCell id="7397BdflzSJR0_GllKvD-100" value="" style="edgeStyle=orthogonalEdgeStyle;rounded=0;orthogonalLoop=1;jettySize=auto;html=1;exitX=0.5;exitY=1;exitDx=0;exitDy=0;exitPerimeter=0;entryX=0.5;entryY=0;entryDx=0;entryDy=0;entryPerimeter=0;" parent="1" source="7397BdflzSJR0_GllKvD-10" target="7397BdflzSJR0_GllKvD-99" edge="1">
          <mxGeometry relative="1" as="geometry">
            <mxPoint x="789" y="189" as="sourcePoint" />
            <mxPoint x="159" y="280" as="targetPoint" />
            <Array as="points">
              <mxPoint x="789" y="220" />
            </Array>
          </mxGeometry>
        </mxCell>
        <mxCell id="7397BdflzSJR0_GllKvD-99" value="" style="image;sketch=0;aspect=fixed;html=1;points=[];align=center;fontSize=12;image=img/lib/mscae/Network_Security_Groups_Classic.svg;" parent="1" vertex="1">
          <mxGeometry x="151.60000000000002" y="240" width="14.8" height="20" as="geometry" />
        </mxCell>
        <mxCell id="7397BdflzSJR0_GllKvD-102" value="" style="edgeStyle=orthogonalEdgeStyle;rounded=0;orthogonalLoop=1;jettySize=auto;html=1;exitX=0.25;exitY=0;exitDx=0;exitDy=0;exitPerimeter=0;entryX=0.4;entryY=1;entryDx=0;entryDy=0;entryPerimeter=0;" parent="1" source="7397BdflzSJR0_GllKvD-4" target="7397BdflzSJR0_GllKvD-101" edge="1">
          <mxGeometry relative="1" as="geometry">
            <mxPoint x="340" y="280" as="sourcePoint" />
            <mxPoint x="274" y="150" as="targetPoint" />
            <Array as="points">
              <mxPoint x="340" y="210" />
              <mxPoint x="274" y="210" />
            </Array>
          </mxGeometry>
        </mxCell>
        <mxCell id="7397BdflzSJR0_GllKvD-101" value="" style="image;sketch=0;aspect=fixed;html=1;points=[];align=center;fontSize=12;image=img/lib/mscae/Network_Security_Groups_Classic.svg;" parent="1" vertex="1">
          <mxGeometry x="264.8" y="169" width="14.8" height="20" as="geometry" />
        </mxCell>
        <mxCell id="7397BdflzSJR0_GllKvD-104" value="" style="edgeStyle=orthogonalEdgeStyle;rounded=0;orthogonalLoop=1;jettySize=auto;html=1;exitX=0.25;exitY=0;exitDx=0;exitDy=0;exitPerimeter=0;entryX=0.55;entryY=0.983;entryDx=0;entryDy=0;entryPerimeter=0;" parent="1" source="7397BdflzSJR0_GllKvD-3" target="7397BdflzSJR0_GllKvD-103" edge="1">
          <mxGeometry relative="1" as="geometry">
            <mxPoint x="140" y="280" as="sourcePoint" />
            <mxPoint x="153" y="149" as="targetPoint" />
            <Array as="points">
              <mxPoint x="139" y="234" />
              <mxPoint x="140" y="189" />
            </Array>
          </mxGeometry>
        </mxCell>
        <mxCell id="7397BdflzSJR0_GllKvD-103" value="" style="image;sketch=0;aspect=fixed;html=1;points=[];align=center;fontSize=12;image=img/lib/mscae/Network_Security_Groups_Classic.svg;" parent="1" vertex="1">
          <mxGeometry x="151.60000000000002" y="169" width="14.8" height="20" as="geometry" />
        </mxCell>
        <mxCell id="7397BdflzSJR0_GllKvD-106" style="edgeStyle=orthogonalEdgeStyle;rounded=0;orthogonalLoop=1;jettySize=auto;html=1;entryX=0.4;entryY=0.1;entryDx=0;entryDy=0;entryPerimeter=0;" parent="1" source="7397BdflzSJR0_GllKvD-105" target="7397BdflzSJR0_GllKvD-45" edge="1">
          <mxGeometry relative="1" as="geometry">
            <mxPoint x="280" y="-230" as="targetPoint" />
          </mxGeometry>
        </mxCell>
        <mxCell id="7397BdflzSJR0_GllKvD-105" value="&lt;div&gt;End Users&lt;/div&gt;&lt;div&gt;&lt;br&gt;&lt;/div&gt;" style="sketch=0;points=[[0,0,0],[0.25,0,0],[0.5,0,0],[0.75,0,0],[1,0,0],[0,1,0],[0.25,1,0],[0.5,1,0],[0.75,1,0],[1,1,0],[0,0.25,0],[0,0.5,0],[0,0.75,0],[1,0.25,0],[1,0.5,0],[1,0.75,0]];outlineConnect=0;fontColor=#232F3E;fillColor=#01A88D;strokeColor=#ffffff;dashed=0;verticalLabelPosition=bottom;verticalAlign=top;align=center;html=1;fontSize=12;fontStyle=0;aspect=fixed;shape=mxgraph.aws4.resourceIcon;resIcon=mxgraph.aws4.desktop_and_app_streaming;" parent="1" vertex="1">
          <mxGeometry x="-40" y="-260" width="50" height="50" as="geometry" />
        </mxCell>
        <mxCell id="7397BdflzSJR0_GllKvD-108" value="&lt;div&gt;Authorized Users&lt;/div&gt;" style="verticalLabelPosition=bottom;aspect=fixed;html=1;shape=mxgraph.salesforce.employees;" parent="1" vertex="1">
          <mxGeometry x="990" y="-260" width="58.199999999999996" height="60" as="geometry" />
        </mxCell>
        <mxCell id="7397BdflzSJR0_GllKvD-109" value="&lt;div&gt;Azure Virtual Desktop AVD&lt;/div&gt;&lt;div&gt;&lt;br&gt;&lt;/div&gt;" style="image;aspect=fixed;html=1;points=[];align=center;fontSize=12;image=img/lib/azure2/other/Windows_Virtual_Desktop.svg;imageBackground=default;" parent="1" vertex="1">
          <mxGeometry x="580" y="-134.9" width="60" height="60" as="geometry" />
        </mxCell>
        <mxCell id="7397BdflzSJR0_GllKvD-110" value="&lt;div&gt;VPN&lt;/div&gt;&lt;div&gt;&lt;br&gt;&lt;/div&gt;" style="points=[];aspect=fixed;html=1;align=center;shadow=0;dashed=0;fillColor=#FF6A00;strokeColor=none;shape=mxgraph.alibaba_cloud.vpn_gateway;" parent="1" vertex="1">
          <mxGeometry x="720" y="-134.9" width="51.95" height="51.95" as="geometry" />
        </mxCell>
        <mxCell id="7397BdflzSJR0_GllKvD-126" style="edgeStyle=orthogonalEdgeStyle;rounded=0;orthogonalLoop=1;jettySize=auto;html=1;entryX=0.519;entryY=0.053;entryDx=0;entryDy=0;entryPerimeter=0;" parent="1" source="7397BdflzSJR0_GllKvD-108" target="7397BdflzSJR0_GllKvD-109" edge="1">
          <mxGeometry relative="1" as="geometry" />
        </mxCell>
        <mxCell id="7397BdflzSJR0_GllKvD-127" style="edgeStyle=orthogonalEdgeStyle;rounded=0;orthogonalLoop=1;jettySize=auto;html=1;entryX=0.43;entryY=0.058;entryDx=0;entryDy=0;entryPerimeter=0;" parent="1" source="z3YjpNOcrx776xUaYnsY-13" target="7397BdflzSJR0_GllKvD-110" edge="1">
          <mxGeometry relative="1" as="geometry" />
        </mxCell>
        <mxCell id="7397BdflzSJR0_GllKvD-129" style="edgeStyle=orthogonalEdgeStyle;rounded=0;orthogonalLoop=1;jettySize=auto;html=1;entryX=1;entryY=0;entryDx=0;entryDy=0;entryPerimeter=0;" parent="1" source="7397BdflzSJR0_GllKvD-131" target="7397BdflzSJR0_GllKvD-8" edge="1">
          <mxGeometry relative="1" as="geometry">
            <Array as="points" />
          </mxGeometry>
        </mxCell>
        <mxCell id="7397BdflzSJR0_GllKvD-130" style="edgeStyle=orthogonalEdgeStyle;rounded=0;orthogonalLoop=1;jettySize=auto;html=1;entryX=0.75;entryY=0;entryDx=0;entryDy=0;entryPerimeter=0;" parent="1" source="7397BdflzSJR0_GllKvD-134" target="7397BdflzSJR0_GllKvD-8" edge="1">
          <mxGeometry relative="1" as="geometry" />
        </mxCell>
        <mxCell id="7397BdflzSJR0_GllKvD-131" value="" style="image;sketch=0;aspect=fixed;html=1;points=[];align=center;fontSize=12;image=img/lib/mscae/Network_Security_Groups_Classic.svg;" parent="1" vertex="1">
          <mxGeometry x="690" y="240" width="14.8" height="20" as="geometry" />
        </mxCell>
        <mxCell id="7397BdflzSJR0_GllKvD-135" value="" style="edgeStyle=orthogonalEdgeStyle;rounded=0;orthogonalLoop=1;jettySize=auto;html=1;entryX=0.75;entryY=0;entryDx=0;entryDy=0;entryPerimeter=0;" parent="1" source="7397BdflzSJR0_GllKvD-109" target="7397BdflzSJR0_GllKvD-134" edge="1">
          <mxGeometry relative="1" as="geometry">
            <mxPoint x="610" y="-75" as="sourcePoint" />
            <mxPoint x="579" y="280" as="targetPoint" />
          </mxGeometry>
        </mxCell>
        <mxCell id="7397BdflzSJR0_GllKvD-134" value="" style="image;sketch=0;aspect=fixed;html=1;points=[];align=center;fontSize=12;image=img/lib/mscae/Network_Security_Groups_Classic.svg;" parent="1" vertex="1">
          <mxGeometry x="598" y="70" width="14.8" height="20" as="geometry" />
        </mxCell>
        <mxCell id="7397BdflzSJR0_GllKvD-136" style="edgeStyle=orthogonalEdgeStyle;rounded=0;orthogonalLoop=1;jettySize=auto;html=1;entryX=0.978;entryY=0.843;entryDx=0;entryDy=0;entryPerimeter=0;" parent="1" source="7397BdflzSJR0_GllKvD-110" target="7397BdflzSJR0_GllKvD-131" edge="1">
          <mxGeometry relative="1" as="geometry">
            <Array as="points">
              <mxPoint x="740" y="80" />
              <mxPoint x="725" y="80" />
              <mxPoint x="725" y="257" />
            </Array>
          </mxGeometry>
        </mxCell>
        <mxCell id="7397BdflzSJR0_GllKvD-137" style="edgeStyle=orthogonalEdgeStyle;rounded=0;orthogonalLoop=1;jettySize=auto;html=1;entryX=0.875;entryY=0.5;entryDx=0;entryDy=0;entryPerimeter=0;" parent="1" source="7397BdflzSJR0_GllKvD-142" target="7397BdflzSJR0_GllKvD-45" edge="1">
          <mxGeometry relative="1" as="geometry" />
        </mxCell>
        <mxCell id="7397BdflzSJR0_GllKvD-138" style="edgeStyle=orthogonalEdgeStyle;rounded=0;orthogonalLoop=1;jettySize=auto;html=1;entryX=0.8;entryY=0.8;entryDx=0;entryDy=0;entryPerimeter=0;exitX=0.104;exitY=0.703;exitDx=0;exitDy=0;exitPerimeter=0;" parent="1" source="7397BdflzSJR0_GllKvD-139" target="7397BdflzSJR0_GllKvD-45" edge="1">
          <mxGeometry relative="1" as="geometry">
            <Array as="points" />
          </mxGeometry>
        </mxCell>
        <mxCell id="7397BdflzSJR0_GllKvD-139" value="" style="image;sketch=0;aspect=fixed;html=1;points=[];align=center;fontSize=12;image=img/lib/mscae/Network_Security_Groups_Classic.svg;" parent="1" vertex="1">
          <mxGeometry x="530" y="-50" width="14.8" height="20" as="geometry" />
        </mxCell>
        <mxCell id="7397BdflzSJR0_GllKvD-141" style="edgeStyle=orthogonalEdgeStyle;rounded=0;orthogonalLoop=1;jettySize=auto;html=1;entryX=0.978;entryY=0.771;entryDx=0;entryDy=0;entryPerimeter=0;" parent="1" source="7397BdflzSJR0_GllKvD-110" target="7397BdflzSJR0_GllKvD-139" edge="1">
          <mxGeometry relative="1" as="geometry">
            <Array as="points">
              <mxPoint x="746" y="-35" />
            </Array>
          </mxGeometry>
        </mxCell>
        <mxCell id="7397BdflzSJR0_GllKvD-143" value="" style="edgeStyle=orthogonalEdgeStyle;rounded=0;orthogonalLoop=1;jettySize=auto;html=1;entryX=0.875;entryY=0.5;entryDx=0;entryDy=0;entryPerimeter=0;" parent="1" source="7397BdflzSJR0_GllKvD-109" target="7397BdflzSJR0_GllKvD-142" edge="1">
          <mxGeometry relative="1" as="geometry">
            <mxPoint x="580" y="-105" as="sourcePoint" />
            <mxPoint x="465" y="-140" as="targetPoint" />
          </mxGeometry>
        </mxCell>
        <mxCell id="7397BdflzSJR0_GllKvD-142" value="" style="image;sketch=0;aspect=fixed;html=1;points=[];align=center;fontSize=12;image=img/lib/mscae/Network_Security_Groups_Classic.svg;" parent="1" vertex="1">
          <mxGeometry x="544.8" y="-114.9" width="14.8" height="20" as="geometry" />
        </mxCell>
        <mxCell id="7397BdflzSJR0_GllKvD-147" style="edgeStyle=orthogonalEdgeStyle;rounded=0;orthogonalLoop=1;jettySize=auto;html=1;exitX=0.55;exitY=0.95;exitDx=0;exitDy=0;exitPerimeter=0;entryX=0.5;entryY=0;entryDx=0;entryDy=0;entryPerimeter=0;" parent="1" source="7397BdflzSJR0_GllKvD-45" target="7397BdflzSJR0_GllKvD-41" edge="1">
          <mxGeometry relative="1" as="geometry" />
        </mxCell>
        <mxCell id="7397BdflzSJR0_GllKvD-153" value="Private subnet" style="points=[[0,0],[0.25,0],[0.5,0],[0.75,0],[1,0],[1,0.25],[1,0.5],[1,0.75],[1,1],[0.75,1],[0.5,1],[0.25,1],[0,1],[0,0.75],[0,0.5],[0,0.25]];outlineConnect=0;html=1;whiteSpace=wrap;fontSize=12;fontStyle=0;container=1;pointerEvents=0;collapsible=0;recursiveResize=0;shape=mxgraph.aws4.group;grIcon=mxgraph.aws4.group_security_group;grStroke=0;strokeColor=#36393d;fillColor=#ffcccc;verticalAlign=top;align=left;spacingLeft=30;dashed=0;fillStyle=zigzag-line;" parent="1" vertex="1">
          <mxGeometry x="10" y="480" width="870" height="440" as="geometry" />
        </mxCell>
        <mxCell id="7397BdflzSJR0_GllKvD-155" value="Public subnet" style="points=[[0,0],[0.25,0],[0.5,0],[0.75,0],[1,0],[1,0.25],[1,0.5],[1,0.75],[1,1],[0.75,1],[0.5,1],[0.25,1],[0,1],[0,0.75],[0,0.5],[0,0.25]];outlineConnect=0;gradientColor=none;html=1;whiteSpace=wrap;fontSize=12;fontStyle=0;container=1;pointerEvents=0;collapsible=0;recursiveResize=0;shape=mxgraph.aws4.group;grIcon=mxgraph.aws4.group_security_group;grStroke=0;strokeColor=#7AA116;fillColor=#FFE599;verticalAlign=top;align=left;spacingLeft=30;fontColor=#248814;dashed=0;fillStyle=dashed;" parent="1" vertex="1">
          <mxGeometry x="10" y="80" width="1015" height="832" as="geometry" />
        </mxCell>
        <mxCell id="7397BdflzSJR0_GllKvD-144" value="Virtual Private Cloud " style="sketch=0;outlineConnect=0;gradientColor=none;html=1;whiteSpace=wrap;fontSize=12;fontStyle=0;shape=mxgraph.aws4.group;grIcon=mxgraph.aws4.group_vpc;strokeColor=#FF3819;fillColor=none;verticalAlign=top;align=left;spacingLeft=30;fontColor=#FF3F0F;dashed=0;" parent="1" vertex="1">
          <mxGeometry x="-70" y="50" width="1075" height="862" as="geometry" />
        </mxCell>
        <mxCell id="z3YjpNOcrx776xUaYnsY-4" value="&lt;div&gt;Mail Server&lt;/div&gt;&lt;div&gt;&lt;br&gt;&lt;/div&gt;" style="sketch=0;pointerEvents=1;shadow=0;dashed=0;html=1;strokeColor=#b46504;fillColor=#FF5811;labelPosition=center;verticalLabelPosition=bottom;verticalAlign=top;outlineConnect=0;align=center;shape=mxgraph.office.servers.3rd_party_mail_server;" vertex="1" parent="1">
          <mxGeometry x="-55" y="-142.63" width="65" height="53.92" as="geometry" />
        </mxCell>
        <mxCell id="z3YjpNOcrx776xUaYnsY-10" style="edgeStyle=none;rounded=0;orthogonalLoop=1;jettySize=auto;html=1;" edge="1" parent="1" source="z3YjpNOcrx776xUaYnsY-6" target="z3YjpNOcrx776xUaYnsY-4">
          <mxGeometry relative="1" as="geometry" />
        </mxCell>
        <mxCell id="z3YjpNOcrx776xUaYnsY-6" value="" style="image;sketch=0;aspect=fixed;html=1;points=[];align=center;fontSize=12;image=img/lib/mscae/Network_Security_Groups_Classic.svg;" vertex="1" parent="1">
          <mxGeometry x="174.8" y="-131.35" width="23.2" height="31.35" as="geometry" />
        </mxCell>
        <mxCell id="z3YjpNOcrx776xUaYnsY-12" style="edgeStyle=none;rounded=0;orthogonalLoop=1;jettySize=auto;html=1;entryX=0.13;entryY=0.77;entryDx=0;entryDy=0;entryPerimeter=0;" edge="1" parent="1" source="z3YjpNOcrx776xUaYnsY-6" target="7397BdflzSJR0_GllKvD-45">
          <mxGeometry relative="1" as="geometry" />
        </mxCell>
        <mxCell id="z3YjpNOcrx776xUaYnsY-13" value="" style="image;sketch=0;aspect=fixed;html=1;points=[];align=center;fontSize=12;image=img/lib/mscae/Network_Security_Groups_Classic.svg;" vertex="1" parent="1">
          <mxGeometry x="856.8" y="-245.68" width="23.2" height="31.35" as="geometry" />
        </mxCell>
      </root>
    </mxGraphModel>
  </diagram>
</mxfile>
